<?xml version="1.0" standalone="no"?>
<!DOCTYPE svg PUBLIC "-//W3C//DTD SVG 20010904//EN"
 "http://www.w3.org/TR/2001/REC-SVG-20010904/DTD/svg10.dtd">
<svg version="1.0" xmlns="http://www.w3.org/2000/svg"
 width="226.000000pt" height="358.000000pt" viewBox="0 0 226.000000 358.000000"
 preserveAspectRatio="xMidYMid meet">

<g transform="translate(0.000000,358.000000) scale(0.100000,-0.100000)"
fill="#000000" stroke="none">
<path d="M905 3456 c-166 -97 -190 -115 -193 -139 -4 -31 -6 -30 103 -27 95 2
315 -17 398 -35 124 -26 218 -81 253 -147 12 -23 14 -209 16 -1160 l3 -1133
-23 -44 c-81 -151 -320 -263 -528 -247 -120 9 -183 36 -259 110 -136 134 -168
293 -94 471 23 57 45 89 85 128 66 64 84 101 60 125 -14 14 -36 17 -134 16
-108 -2 -123 -4 -191 -34 -264 -114 -394 -301 -393 -565 0 -78 5 -103 36 -188
54 -149 90 -209 172 -286 145 -138 251 -190 529 -257 194 -46 426 -48 636 -5
164 34 301 110 425 236 138 140 157 199 183 586 14 223 16 329 10 569 -10 412
-10 1183 1 1375 13 240 62 392 184 574 66 98 77 132 56 172 -10 18 -27 19
-578 18 l-567 -1 -190 -112z"/>
<path d="M970 1472 c-49 -24 -67 -60 -51 -100 25 -59 112 -79 172 -39 63 42
46 126 -28 146 -50 14 -52 14 -93 -7z"/>
<path d="M955 1238 c-3 -7 -29 -80 -60 -162 -30 -82 -55 -158 -55 -168 0 -22
78 -81 138 -104 40 -16 47 -16 96 -1 57 18 136 79 136 105 0 9 -25 82 -55 162
-30 80 -55 150 -55 156 0 17 -25 24 -86 24 -35 0 -56 -5 -59 -12z"/>
</g>
</svg>
