<?xml version="1.0" standalone="no"?>
<!DOCTYPE svg PUBLIC "-//W3C//DTD SVG 20010904//EN"
 "http://www.w3.org/TR/2001/REC-SVG-20010904/DTD/svg10.dtd">
<svg version="1.0" xmlns="http://www.w3.org/2000/svg"
 width="358.000000pt" height="296.000000pt" viewBox="0 0 358.000000 296.000000"
 preserveAspectRatio="xMidYMid meet">

<g transform="translate(0.000000,296.000000) scale(0.100000,-0.100000)"
fill="#000000" stroke="none">
<path d="M376 2638 c-4 -18 -2 -34 2 -36 39 -13 99 -52 116 -75 21 -28 21 -39
21 -555 0 -566 0 -571 -52 -633 -35 -41 -74 -59 -129 -59 -99 0 -154 71 -154
199 0 75 11 107 57 169 32 43 24 62 -24 62 -118 -1 -204 -106 -204 -248 0
-180 154 -306 351 -289 145 14 246 99 297 252 l27 80 6 460 c7 504 8 510 72
623 46 81 43 82 -187 82 l-192 0 -7 -32z"/>
</g>
</svg>
